<svg id="Logo-AdmiralBET" xmlns="http://www.w3.org/2000/svg" width="105" height="27.059" viewBox="0 0 105 27.059">
    <path id="Path_23" data-name="Path 23"
          d="M34.544,10.783h7.509a7.007,7.007,0,0,1,2.46.388A3.943,3.943,0,0,1,46.2,12.337a4.568,4.568,0,0,1,1.036,1.683,6.048,6.048,0,0,1,.388,2.2,5.864,5.864,0,0,1-.388,2.072A5.322,5.322,0,0,1,46.2,19.975a4.389,4.389,0,0,1-1.813,1.165,7.661,7.661,0,0,1-2.589.518h-7.25Zm6.862,8.545a3.212,3.212,0,0,0,2.33-.906,3.045,3.045,0,0,0,.777-2.2,3.088,3.088,0,0,0-3.107-3.237H37.651v6.344Zm35.734,2.33H73.9V10.783h7.639a5.876,5.876,0,0,1,3.366.777,3.213,3.213,0,0,1,1.036,2.589,3.737,3.737,0,0,1-.777,2.2,3.378,3.378,0,0,1-1.295.906l2.2,4.273H82.836l-1.942-3.884H77.4Zm4.014-6.215a1.718,1.718,0,0,0,1.295-.388,1.119,1.119,0,0,0,.388-.777,1.119,1.119,0,0,0-.388-.777,1.718,1.718,0,0,0-1.295-.388H77.139v2.33ZM27.034,9.1H23.021L15.9,23.471h3.625l1.813-3.5h7.768l1.813,3.5h3.625Zm-4.4,7.9,2.46-4.79L27.552,17Zm73.15-6.215H92.028L86.59,21.659h3.237l1.036-2.2h5.956l1.036,2.2h3.237ZM92.158,17l1.683-3.366L95.524,17H92.158ZM70.8,10.783H67.558V21.659H70.8Zm-11,0-2.848,5.308-2.848-5.308H49.433V21.659h3.237V14.02l4.272,7.768,4.273-7.639v7.639h3.237V10.913Zm46.091,9.71V9.1h-3.5V23.471h12.041V20.623h-8.545Z"
          transform="translate(-9.427 -9.1)" fill="#fff"/>
    <path id="Path_24" data-name="Path 24"
          d="M81.731,25.019l-.518.906h3.755l-1.424,2.719H79.789l-.518.906h6.344l-1.424,2.719H74.869l5.179-9.84H89.37l-1.424,2.719H81.731ZM89.888,22.3l-1.424,2.719H91.83L88.075,32.14h3.237l3.755-7.121h3.366L99.857,22.3Zm-12.3,2.848a4.479,4.479,0,0,1-1.295,1.424,2.44,2.44,0,0,1-1.165.518,1.135,1.135,0,0,1,.906.777,2.439,2.439,0,0,1-.259,1.554,5.069,5.069,0,0,1-1.036,1.295,6.121,6.121,0,0,1-1.554.906,4,4,0,0,1-1.424.259,8.56,8.56,0,0,1-1.424.129H64.9l.647-1.165h0c.259-.259.518-.388.777-.647,1.036-.777,2.072-1.554,3.5-2.46a22.52,22.52,0,0,1,2.33-1.424h.259a2.006,2.006,0,0,0,1.036-.259,1.293,1.293,0,0,0,.518-.647.127.127,0,0,1,.129-.129h.129a19.843,19.843,0,0,1,3.5-1.424h.129A1.594,1.594,0,0,1,77.588,25.148Zm-4.92,3.366c-.129-.129-.388-.129-.906-.129H70.338l-.906,1.683h1.424a2.585,2.585,0,0,0,1.165-.259h0a1.56,1.56,0,0,0,.647-.647A.588.588,0,0,0,72.668,28.515Z"
          transform="translate(5.014 -5.21)" fill="#fff"/>
    <path id="Path_25" data-name="Path 25"
          d="M14.525,25.048l1.295-2.589H82.626l-1.295,2.589Zm64.994,3.5,1.295-2.589H14.007l-1.295,2.589Zm-1.813,3.625L79,29.58H12.195L10.9,32.169ZM87.935,24.4l-.906,1.683h.259c-.388.259-.647.388-1.036.647s-.647.388-1.036.647c-.647.388-1.295.906-1.942,1.295-.518.388-1.165.906-1.683,1.295h0c.129-.259.388-.647.518-.906l.518-.906,1.036-1.942L84.7,24.272l1.036-1.942V22.2h6.732a.476.476,0,0,1,.388.129,2.83,2.83,0,0,1,.647.388v.129h-.129a1.84,1.84,0,0,1-.777.259l-.777.388c-.518.259-1.036.518-1.683.777H89.1Z"
          transform="translate(-10.9 -5.239)" fill="#ffcb05"/>
</svg>
